<svg id="Layer_1" data-name="Layer 1" xmlns="http://www.w3.org/2000/svg" viewBox="0 0 383.46 383.45"><defs><style>.cls-1{fill:#fff;}</style></defs><title>burger_maniaArtboard 4</title><path class="cls-1" d="M383.89,192.57A42,42,0,0,0,365.79,158a42,42,0,0,0-26.43-63.82,42,42,0,0,0-48.85-48.84A42,42,0,0,0,226.7,18.94a42,42,0,0,0-69.07,0A42,42,0,0,0,93.81,45.37,42,42,0,0,0,45,94.21,42,42,0,0,0,18.53,158a42,42,0,0,0,0,69.07A42,42,0,0,0,45,290.92a42,42,0,0,0,48.84,48.84,42,42,0,0,0,63.82,26.43,42,42,0,0,0,69.07,0,42,42,0,0,0,63.82-26.43,42,42,0,0,0,48.84-48.84,42,42,0,0,0,26.43-63.82A42,42,0,0,0,383.89,192.57Z"/><path d="M192.43,245c-16.39,0-32.77,0-49.16,0-9.35,0-16.08-4.44-20.25-12.76a17.86,17.86,0,0,1-1.91-7.86c-.07-4,0-8,0-12a9.28,9.28,0,0,1,.81-4c.4-.85.17-1.31-.5-1.9a13.17,13.17,0,0,1-2.92-16.86,1.6,1.6,0,0,0-.08-1.69c-2.84-6-2.44-11.73,1.5-17.13a.94.94,0,0,0,0-1.42c-4.47-5.59-4.37-11.91.24-17.34.15-.19.28-.43.48-.53,2.33-1.1,2-2.59,1.16-4.69-1.33-3.28-.71-6.8-.18-10.19,2-13.23,9.54-22.86,20.29-30.24,9.64-6.62,20.4-10.5,31.82-12.63a97,97,0,0,1,57.48,6.3c9.75,4.22,18.24,10.18,24.52,18.94a40.29,40.29,0,0,1,7.69,24.14,12.3,12.3,0,0,1-1.48,5.76c-.34.63-.27.93.35,1.37a12.77,12.77,0,0,1,2.34,19.17c-.41.47-.52.72-.1,1.28,4,5.37,4.42,11.11,1.61,17.12a2,2,0,0,0,0,2.07,13.3,13.3,0,0,1-3.28,16.8,1,1,0,0,0-.34,1.53,9.11,9.11,0,0,1,.88,4c-.1,4.77.42,9.57-.28,14.31a21.63,21.63,0,0,1-17.76,18.23,18.56,18.56,0,0,1-3.41.3Zm-.4-97.2h57.9c3.47,0,5.45-2,5.42-5.42a32,32,0,0,0-3.12-13.7c-3.64-7.64-9.51-13.17-16.64-17.48-10.18-6.17-21.33-9.39-33.08-10.76a89.57,89.57,0,0,0-36.68,3.24c-9.13,2.77-17.65,6.77-24.77,13.28-7.29,6.66-11.69,14.75-12,24.81-.12,4.14,1.67,6,5.77,6Zm.14,61.41h-59c-3.1,0-4.21,1.13-4.22,4.24s0,6.12,0,9.18a15,15,0,0,0,.69,4.65c2.07,6.31,7.13,9.82,14.21,9.82h96.75c.67,0,1.34,0,2-.07a13.61,13.61,0,0,0,12.74-13.11c.13-3.43,0-6.87.06-10.31s-.91-4.4-4.42-4.4Zm.15-53.38H130.83c-.52,0-1.05,0-1.57,0a5.25,5.25,0,0,0-4.58,3.55,5,5,0,0,0,1.93,5.44,6.19,6.19,0,0,0,4,1H253.82a11.77,11.77,0,0,0,1.57,0A5,5,0,0,0,259.5,159c-.79-2.05-2.62-3.15-5.27-3.15Zm-.09,45.44h62.35c3.66,0,5.79-2.61,5.08-6.1-.16-.79-.37-1-1.22-.75-5,1.52-9.31.23-13-3.38-1-1-1.95-2-3-2.88-2.22-1.93-4.17-2-6.41-.1-1.06.88-2,1.9-3,2.86-5.78,5.6-13.22,5.61-19,0-1-1-1.94-2-3-2.88-2.12-1.81-4-1.86-6.19-.1-1.22,1-2.31,2.13-3.43,3.24a12.74,12.74,0,0,1-17.4.88c-1.41-1.29-2.74-2.67-4.19-3.92-2.33-2-4.33-2-6.63,0-1,.91-2,1.93-3,2.89a13.1,13.1,0,0,1-8.93,4,12.79,12.79,0,0,1-9.88-4.08,25.13,25.13,0,0,0-3.69-3.38,4,4,0,0,0-5,0,21.9,21.9,0,0,0-3.5,3.17c-3.75,3.87-8.18,5.28-13.42,3.66-.48-.15-.76-.21-1,.38a4.9,4.9,0,0,0,3.8,6.38,19.23,19.23,0,0,0,2.28.1Zm0-27.61q-30.82,0-61.63,0a5.38,5.38,0,0,0-5.09,2.83,7.66,7.66,0,0,0-.75,6c1.29,4.91,5.18,6.09,8.92,2.71.36-.31.67-.68,1-1a25.15,25.15,0,0,1,3.53-3.15,11.77,11.77,0,0,1,11.43-1.36c2.9,1,4.82,3.36,7,5.37,3.13,2.9,5.67,2.86,8.72-.14.91-.91,1.79-1.86,2.75-2.72a11.94,11.94,0,0,1,13.42-2.28c2.59,1.07,4.37,3.19,6.34,5,3.22,3.06,6,3,9-.25a30.88,30.88,0,0,1,3.45-3.22,11.87,11.87,0,0,1,15.08,0c1.61,1.27,3,2.78,4.57,4.12,2.44,2.11,4.56,2.2,7.08.18,1.29-1,2.4-2.32,3.64-3.44,5.29-4.83,12.19-4.73,17.38.21,1,1,2.05,2,3.13,2.95,3.3,2.88,6.83,1.89,8.24-2.27,1.84-5.4-1.06-9.48-6.73-9.48Z"/><path d="M175.78,111a5.63,5.63,0,0,1-2.62-.57c-.95-.5-1-1.2-.08-1.7a5.42,5.42,0,0,1,5.21-.09c1,.48.93,1.23,0,1.81A4.83,4.83,0,0,1,175.78,111Z"/><path d="M208.6,111a4.77,4.77,0,0,1-2.62-.65c-.75-.5-.76-1-.07-1.6,1.14-.92,4.39-.88,5.58.06.78.62.54,1.17-.16,1.57A5.35,5.35,0,0,1,208.6,111Z"/><path d="M240.32,139a4.32,4.32,0,0,1-2.6-.57c-.9-.56-.95-1.26,0-1.71a5.54,5.54,0,0,1,5.34,0c.9.49.86,1.21-.08,1.7A4.86,4.86,0,0,1,240.32,139Z"/><path d="M221.25,139a4.19,4.19,0,0,1-2.47-.55c-.93-.56-1-1.14-.11-1.73a6,6,0,0,1,5.48.07c.86.63.63,1.22-.14,1.65A5,5,0,0,1,221.25,139Z"/><path d="M182.35,139a4.2,4.2,0,0,1-2.59-.61c-.85-.55-.77-1.13,0-1.67a6,6,0,0,1,5.49.07c.75.54.72,1.1,0,1.57A4.81,4.81,0,0,1,182.35,139Z"/><path d="M171.82,127.13a4.87,4.87,0,0,1,2.5.42c1,.48,1,1.4.08,1.82a5.76,5.76,0,0,1-5.24,0c-.39-.2-.75-.47-.71-1s.46-.72.85-.89A5.3,5.3,0,0,1,171.82,127.13Z"/><path d="M233.19,128.93a4.31,4.31,0,0,1-2.51-.52c-1-.57-1-1.33,0-1.8a5.7,5.7,0,0,1,5.09,0c.4.19.81.43.8.92s-.47.82-.9,1A5.18,5.18,0,0,1,233.19,128.93Z"/><path d="M192.13,110.21a5.31,5.31,0,0,1,2.59.42c1,.48,1.11,1.35.13,1.79a5.82,5.82,0,0,1-5.24.1,1.08,1.08,0,0,1-.72-1,1.12,1.12,0,0,1,.79-.93A5.15,5.15,0,0,1,192.13,110.21Z"/><path d="M144.1,139a5.37,5.37,0,0,1-2.32-.38c-.5-.17-1-.45-1-1.05s.47-.78.91-1a5.8,5.8,0,0,1,4.69,0c.45.18.86.45.86,1s-.45.78-.87,1A4.3,4.3,0,0,1,144.1,139Z"/><path d="M163.13,139a5.47,5.47,0,0,1-2.37-.37c-.5-.18-1-.43-1-1.06s.47-.78.9-1a5.8,5.8,0,0,1,4.69,0c.46.18.87.46.87,1s-.45.79-.87,1A4.21,4.21,0,0,1,163.13,139Z"/><path d="M202.11,139a5,5,0,0,1-2.89-.61c-.81-.51-.85-1.15,0-1.63a5.48,5.48,0,0,1,5.2-.09c1,.47.93,1.23,0,1.81A4,4,0,0,1,202.11,139Z"/><path d="M151.37,128.94a5,5,0,0,1-3-.65c-.74-.48-.75-1,0-1.56a5.91,5.91,0,0,1,5.34-.11c.85.55.85,1.2,0,1.75A3.93,3.93,0,0,1,151.37,128.94Z"/><path d="M192.31,125.68a4.43,4.43,0,0,1,2.58.6c.81.53.91,1.18,0,1.61a6.18,6.18,0,0,1-5.36,0c-.89-.4-.85-1.18,0-1.74A5.34,5.34,0,0,1,192.31,125.68Z"/><path d="M161.44,118a5.3,5.3,0,0,1,2.73.58c1,.52.93,1.13,0,1.72a6.13,6.13,0,0,1-5.37-.07c-.81-.57-.77-1.15.09-1.64A4.29,4.29,0,0,1,161.44,118Z"/><path d="M222.42,118a4.08,4.08,0,0,1,2.41.58c.85.5.86,1.07.09,1.64a5.93,5.93,0,0,1-5.32.06c-.88-.58-.9-1.19,0-1.7A5,5,0,0,1,222.42,118Z"/><path d="M202.34,120.86a4.21,4.21,0,0,1-2.37-.51c-1-.58-1.06-1.31-.06-1.78a5.5,5.5,0,0,1,5.1,0c1,.52,1,1.28-.06,1.78A5,5,0,0,1,202.34,120.86Z"/><path d="M181.72,118a5.3,5.3,0,0,1,2.79.57c.94.51,1,1.2,0,1.71a5.48,5.48,0,0,1-5.23,0c-.83-.41-.91-1.09,0-1.64A3.87,3.87,0,0,1,181.72,118Z"/><path d="M212.77,127.12a4.31,4.31,0,0,1,2.47.53c.82.5.84,1.1.07,1.67a6,6,0,0,1-5.36.06c-.87-.58-.81-1.37.17-1.85A5.45,5.45,0,0,1,212.77,127.12Z"/><path d="M63.46,193.94A5.66,5.66,0,0,1,59.73,195a5.8,5.8,0,0,1-4.52-2.19,8.43,8.43,0,0,1-1.4-5.76l.51-10,23.2,1.2-.5,9.76a8.29,8.29,0,0,1-1.82,5.32,5.26,5.26,0,0,1-4.43,1.67,5.35,5.35,0,0,1-3.49-1.32,5.21,5.21,0,0,1-1.66-3.06A5.68,5.68,0,0,1,63.46,193.94Zm-5.16-4.73a2.84,2.84,0,0,0,2.3,1.11,2.93,2.93,0,0,0,2.43-.88,4.37,4.37,0,0,0,1-2.8l.22-4.37-6.38-.33-.22,4.41A4.27,4.27,0,0,0,58.3,189.21Zm9.26-6.77-.21,4.17A4,4,0,0,0,68,189.3a2.77,2.77,0,0,0,2.17,1,2.81,2.81,0,0,0,2.28-.78,4,4,0,0,0,.93-2.68l.21-4.11Z"/><path d="M79.47,216.86l-13.19,3.42a6.08,6.08,0,0,0-3.66,2.19,4.37,4.37,0,0,0-.45,3.7,4.33,4.33,0,0,0,2.18,3,6.07,6.07,0,0,0,4.27.14l13.19-3.42L83,230.34l-13.19,3.42a11.34,11.34,0,0,1-5.57.2,7.82,7.82,0,0,1-4-2.39,10.6,10.6,0,0,1-2.26-4.39,9.06,9.06,0,0,1,.75-7.1c1.2-2,3.35-3.45,6.48-4.26l13.19-3.42Z"/><path d="M76.63,268.93l4.84-9.38-1.07-1.73-7.7,4.76-2.44-3.95L90,246.41l4.66,7.53c1.41,2.3,1.94,4.39,1.56,6.29a6.77,6.77,0,0,1-3.31,4.54,6.7,6.7,0,0,1-4.52,1.07,7.26,7.26,0,0,1-4.24-2.35l-4.84,9.81Zm6.48-12.79,2,3.25c1.39,2.25,3.09,2.77,5.09,1.53a3.46,3.46,0,0,0,1.71-2.2,4.2,4.2,0,0,0-.78-3.05l-2-3.25Z"/><path d="M122,286.59a9.35,9.35,0,0,1-.91,6.63l-3.71-3.15a5.57,5.57,0,0,0,0-3.33,6.55,6.55,0,0,0-2.1-3,6.79,6.79,0,0,0-3.3-1.6,6.32,6.32,0,0,0-3.54.46,8.88,8.88,0,0,0-3.24,2.52,7.9,7.9,0,0,0-2.19,5.61,7.06,7.06,0,0,0,2.77,5,6.55,6.55,0,0,0,4.23,1.64,6.89,6.89,0,0,0,4.43-1.64l-6-5.08,2.14-2.54,9,7.59-2.89,3.42a10.84,10.84,0,0,1-4.21,2,10.29,10.29,0,0,1-4.87,0,11.67,11.67,0,0,1-4.81-2.55,11.88,11.88,0,0,1-3.65-5,10.41,10.41,0,0,1-.39-5.8,13,13,0,0,1,2.87-5.61,12.78,12.78,0,0,1,5.06-3.76,10.43,10.43,0,0,1,5.79-.6,11.69,11.69,0,0,1,5.57,2.73A11.46,11.46,0,0,1,122,286.59Z"/><path d="M143.89,301.21l-2.36,5.54L149.1,310l-1.39,3.27L140.14,310l-2.45,5.75,8.47,3.61-1.45,3.42L132,317.37,141.07,296l12.74,5.43-1.44,3.39Z"/><path d="M179.48,330.5l-4.3-9.64-2-.25-1.1,9-4.6-.56L170.27,306l8.79,1.07q4,.49,5.88,2.71a6.74,6.74,0,0,1,1.48,5.41,6.67,6.67,0,0,1-2,4.2A7.16,7.16,0,0,1,180,321.2l4.62,9.92Zm-5.94-13.06,3.79.46q4,.48,4.38-3a3.49,3.49,0,0,0-.64-2.72,4.23,4.23,0,0,0-2.88-1.29l-3.79-.46Z"/><path d="M248.21,294.27l8.84,21.2-4.25,1.77-6.17-14.79.73,17.06-3.7,1.55L232.08,308.6l6.14,14.73-4.28,1.78-8.84-21.19,5.19-2.17L243.38,315,243,296.43Z"/><path d="M285.49,288.52l-6.9,6.26,1.92,4.57-3.63,3.29-9.09-22.77,3.93-3.56,21.74,11.3-3.63,3.29Zm-3.29-1.77-9.12-5,4.05,9.57Z"/><path d="M317.49,252.13l-2.28,4.05-18.87,1.29,13.76,7.76-2.28,4-20.24-11.41,2.28-4,19-1.23L295,244.76l2.28-4Z"/><path d="M304.29,219.15,326.77,225l-1.16,4.49-22.49-5.85Z"/><path d="M325.91,187.11l.06,9.32,4.68,1.61,0,4.91-23-8.41,0-5.3,22.92-8.67,0,4.9Zm-3.52,1.28-9.78,3.48,9.83,3.36Z"/></svg>